<svg width="409" height="266" viewBox="0 0 409 266" fill="none" xmlns="http://www.w3.org/2000/svg">
<path d="M370.654 46.4961H39.1591C31.2675 46.4961 24.8701 52.8935 24.8701 60.7851V232.248C24.8701 240.14 31.2675 246.537 39.1591 246.537H370.654C378.546 246.537 384.943 240.14 384.943 232.248V60.7851C384.943 52.8935 378.546 46.4961 370.654 46.4961Z" fill="url(#paint0_linear_306_2)"/>
<path d="M346.712 94.0723H62.0202C55.2382 94.0723 49.7402 99.5702 49.7402 106.352V253.719C49.7402 260.501 55.2382 265.999 62.0202 265.999H346.712C353.494 265.999 358.992 260.501 358.992 253.719V106.352C358.992 99.5702 353.494 94.0723 346.712 94.0723Z" fill="url(#paint1_linear_306_2)"/>
<path d="M392.512 0H16.22C7.26194 0 0 7.26194 0 16.22V210.853C0 219.811 7.26194 227.073 16.22 227.073H392.512C401.47 227.073 408.732 219.811 408.732 210.853V16.22C408.732 7.26194 401.47 0 392.512 0Z" fill="url(#paint2_linear_306_2)"/>
<path d="M259.894 130.095V114.884C259.894 114.134 260.192 113.414 260.722 112.884C261.253 112.354 261.972 112.056 262.722 112.056C263.472 112.056 264.191 112.354 264.722 112.884C265.252 113.414 265.55 114.134 265.55 114.884V130.095C265.55 130.845 265.252 131.564 264.722 132.094C264.191 132.625 263.472 132.923 262.722 132.923C261.972 132.923 261.253 132.625 260.722 132.094C260.192 131.564 259.894 130.845 259.894 130.095ZM247.369 130.095V114.884C247.362 114.508 247.43 114.134 247.569 113.785C247.708 113.435 247.915 113.117 248.178 112.849C248.442 112.581 248.756 112.367 249.103 112.222C249.449 112.076 249.821 112.002 250.197 112.002C250.573 112.002 250.946 112.076 251.292 112.222C251.639 112.367 251.953 112.581 252.217 112.849C252.48 113.117 252.687 113.435 252.826 113.785C252.965 114.134 253.033 114.508 253.026 114.884V130.095C253.033 130.471 252.965 130.844 252.826 131.194C252.687 131.543 252.48 131.861 252.217 132.129C251.953 132.398 251.639 132.611 251.292 132.756C250.946 132.902 250.573 132.977 250.197 132.977C249.821 132.977 249.449 132.902 249.103 132.756C248.756 132.611 248.442 132.398 248.178 132.129C247.915 131.861 247.708 131.543 247.569 131.194C247.43 130.844 247.362 130.471 247.369 130.095V130.095ZM198.675 120.135V115.098C198.689 114.357 198.993 113.651 199.522 113.132C200.051 112.613 200.762 112.322 201.503 112.322C202.245 112.322 202.956 112.613 203.485 113.132C204.014 113.651 204.318 114.357 204.332 115.098V120.135C204.354 122.01 205.115 123.8 206.448 125.118C207.782 126.436 209.581 127.175 211.456 127.175C213.331 127.175 215.131 126.436 216.465 125.118C217.798 123.8 218.559 122.01 218.581 120.135V110.773C218.595 110.032 218.899 109.326 219.428 108.807C219.957 108.288 220.668 107.997 221.409 107.997C222.151 107.997 222.862 108.288 223.391 108.807C223.92 109.326 224.224 110.032 224.238 110.773V112.055H236.498C237.239 112.069 237.945 112.373 238.464 112.902C238.983 113.431 239.274 114.142 239.274 114.883C239.274 115.624 238.983 116.336 238.464 116.865C237.945 117.394 237.239 117.698 236.498 117.712H224.232V120.135C224.232 123.524 222.885 126.775 220.488 129.172C218.092 131.569 214.841 132.916 211.451 132.916C208.061 132.916 204.81 131.569 202.413 129.172C200.017 126.775 198.67 123.524 198.67 120.135H198.675ZM142.732 120.613V115.099C142.725 114.723 142.793 114.349 142.932 114C143.071 113.65 143.278 113.332 143.541 113.064C143.805 112.796 144.119 112.582 144.466 112.437C144.812 112.291 145.184 112.216 145.56 112.216C145.936 112.216 146.309 112.291 146.655 112.437C147.002 112.582 147.316 112.796 147.58 113.064C147.843 113.332 148.05 113.65 148.189 114C148.328 114.349 148.396 114.723 148.389 115.099V120.612C148.377 122.357 149.058 124.035 150.281 125.28C151.504 126.525 153.17 127.235 154.915 127.255C156.661 127.235 158.328 126.525 159.551 125.28C160.774 124.034 161.454 122.354 161.442 120.609V114.909L161.251 99.0087C161.242 98.2587 161.531 97.5358 162.055 96.999C162.579 96.4623 163.295 96.1557 164.045 96.1467C164.795 96.1377 165.518 96.427 166.055 96.9509C166.591 97.4749 166.898 98.1907 166.907 98.9407L167.098 114.759V120.604C167.109 123.849 165.833 126.967 163.549 129.272C161.265 131.578 158.16 132.884 154.915 132.904C151.671 132.884 148.567 131.579 146.284 129.276C144 126.972 142.723 123.857 142.732 120.613V120.613ZM181.386 132.575C181.219 132.539 181.055 132.491 180.896 132.429C180.734 132.36 180.579 132.276 180.432 132.18C180.288 132.085 180.154 131.975 180.032 131.853C179.911 131.728 179.801 131.592 179.704 131.448C179.608 131.3 179.525 131.145 179.455 130.984C179.394 130.824 179.345 130.661 179.309 130.494C179.275 130.321 179.258 130.145 179.258 129.969C179.258 129.795 179.275 129.622 179.309 129.452C179.345 129.282 179.393 129.114 179.455 128.952C179.527 128.794 179.61 128.641 179.704 128.496C179.799 128.352 179.909 128.218 180.032 128.096C180.156 127.973 180.289 127.86 180.432 127.76C180.577 127.668 180.729 127.587 180.887 127.52C181.048 127.452 181.216 127.4 181.387 127.365C181.73 127.295 182.084 127.295 182.427 127.365C182.599 127.399 182.766 127.451 182.927 127.52C183.085 127.588 183.238 127.668 183.383 127.76C183.525 127.86 183.659 127.973 183.783 128.096C183.906 128.219 184.019 128.353 184.12 128.496C184.211 128.641 184.291 128.794 184.359 128.952C184.425 129.113 184.475 129.28 184.506 129.452C184.543 129.622 184.563 129.795 184.566 129.969C184.563 130.145 184.543 130.321 184.506 130.494C184.474 130.662 184.425 130.826 184.359 130.984C184.293 131.145 184.213 131.3 184.12 131.448C184.017 131.59 183.905 131.726 183.783 131.853C183.661 131.975 183.527 132.085 183.383 132.18C183.237 132.274 183.085 132.357 182.927 132.429C182.764 132.491 182.597 132.54 182.427 132.575C182.257 132.609 182.084 132.627 181.911 132.627C181.735 132.627 181.559 132.609 181.386 132.575ZM229.972 126.82C229.393 126.807 228.841 126.569 228.436 126.155C228.031 125.741 227.804 125.184 227.804 124.605C227.804 124.026 228.031 123.47 228.436 123.056C228.841 122.642 229.393 122.403 229.972 122.391H237.578C238.157 122.403 238.708 122.642 239.114 123.056C239.519 123.47 239.746 124.026 239.746 124.605C239.746 125.184 239.519 125.741 239.114 126.155C238.708 126.569 238.157 126.807 237.578 126.82H229.972ZM178.105 125.934C177.526 125.921 176.974 125.683 176.569 125.269C176.164 124.855 175.937 124.298 175.937 123.719C175.937 123.14 176.164 122.584 176.569 122.17C176.974 121.756 177.526 121.517 178.105 121.505H185.711C186.29 121.517 186.841 121.756 187.247 122.17C187.652 122.584 187.879 123.14 187.879 123.719C187.879 124.298 187.652 124.855 187.247 125.269C186.841 125.683 186.29 125.921 185.711 125.934H178.105ZM175.077 117.712C174.887 117.712 174.697 117.692 174.511 117.655C174.461 117.644 174.411 117.623 174.367 117.61C174.236 117.579 174.107 117.539 173.982 117.49C173.922 117.466 173.869 117.428 173.81 117.397C173.704 117.347 173.601 117.292 173.502 117.231C173.445 117.193 173.402 117.143 173.345 117.101C173.254 117.034 173.168 116.963 173.085 116.887C173.036 116.839 172.999 116.787 172.956 116.732C172.878 116.649 172.806 116.562 172.74 116.47C172.701 116.413 172.674 116.349 172.64 116.29C172.58 116.193 172.526 116.093 172.478 115.99C172.449 115.922 172.433 115.847 172.41 115.775C172.37 115.673 172.337 115.569 172.31 115.464C172.293 115.384 172.292 115.298 172.281 115.217C172.265 115.117 172.254 115.017 172.248 114.917L172.058 99.0167C172.049 98.2667 172.338 97.5438 172.862 97.007C173.386 96.4703 174.102 96.1637 174.852 96.1547C175.602 96.1457 176.325 96.435 176.862 96.9589C177.398 97.4829 177.705 98.1987 177.714 98.9487L177.871 112.049H188.132C188.873 112.063 189.579 112.367 190.098 112.896C190.617 113.425 190.908 114.136 190.908 114.877C190.908 115.618 190.617 116.33 190.098 116.859C189.579 117.388 188.873 117.692 188.132 117.706L175.077 117.712ZM209.577 116.767C209.079 116.266 208.797 115.589 208.794 114.883C208.795 114.534 208.864 114.189 208.999 113.867C209.133 113.545 209.329 113.253 209.577 113.007C210.086 112.528 210.758 112.262 211.456 112.262C212.154 112.262 212.826 112.528 213.335 113.007C213.829 113.506 214.107 114.18 214.109 114.883C214.111 115.232 214.044 115.579 213.911 115.902C213.778 116.226 213.582 116.519 213.335 116.767C213.088 117.014 212.794 117.21 212.47 117.342C212.147 117.475 211.801 117.543 211.451 117.541C210.75 117.537 210.078 117.26 209.579 116.767H209.577ZM260.84 107.881C260.345 107.378 260.064 106.702 260.057 105.997C260.059 105.604 260.148 105.216 260.317 104.862C260.486 104.507 260.731 104.194 261.035 103.945C261.339 103.697 261.694 103.518 262.075 103.422C262.456 103.326 262.853 103.315 263.239 103.391C263.41 103.426 263.578 103.478 263.739 103.546C263.897 103.614 264.049 103.695 264.195 103.787C264.338 103.887 264.472 103.999 264.595 104.123C265.091 104.622 265.37 105.298 265.37 106.002C265.37 106.706 265.091 107.381 264.595 107.881C264.474 108.004 264.34 108.113 264.195 108.208C264.05 108.302 263.897 108.386 263.739 108.457C263.576 108.518 263.409 108.567 263.239 108.604C263.066 108.638 262.89 108.655 262.714 108.655C262.013 108.652 261.341 108.374 260.842 107.881H260.84Z" fill="#303030"/>
<defs>
<linearGradient id="paint0_linear_306_2" x1="384.943" y1="146.517" x2="24.8701" y2="146.517" gradientUnits="userSpaceOnUse">
<stop stop-color="#FFD900" stop-opacity="0.251"/>
<stop offset="1" stop-color="#FFE422" stop-opacity="0.251"/>
</linearGradient>
<linearGradient id="paint1_linear_306_2" x1="358.992" y1="180.036" x2="49.7402" y2="180.036" gradientUnits="userSpaceOnUse">
<stop stop-color="#FFD900" stop-opacity="0.149"/>
<stop offset="1" stop-color="#FFE422" stop-opacity="0.149"/>
</linearGradient>
<linearGradient id="paint2_linear_306_2" x1="408.732" y1="113.536" x2="0" y2="113.536" gradientUnits="userSpaceOnUse">
<stop stop-color="#FFD900"/>
<stop offset="1" stop-color="#FFE422"/>
</linearGradient>
</defs>
</svg>
